<svg
   xmlns:svg="http://www.w3.org/2000/svg"
   xmlns="http://www.w3.org/2000/svg"
   version="1.1"
   id="svg3365"
   viewBox="0 0 100 100"
   style="clip-rule:evenodd;fill-rule:evenodd;image-rendering:optimizeQuality;shape-rendering:geometricPrecision;text-rendering:geometricPrecision"
   height="80"
   width="100"
   xml:space="preserve"><g
     transform="matrix(1.250036,0,0,1.250036,-22.501513,-0.49756643)"
     id="Layer_x0020_1"><metadata
       id="CorelCorpID_0Corel-Layer" /><ellipse
       d="M 72.171534,6.5434799 A 6.5432301,6.54321 0 0 1 65.628304,13.08669 6.5432301,6.54321 0 0 1 59.085073,6.5434799 6.5432301,6.54321 0 0 1 65.628304,2.6988983e-4 6.5432301,6.54321 0 0 1 72.171534,6.5434799 Z"
       style="fill:#181818"
       id="ellipse3373"
       ry="6.54321"
       rx="6.5432301"
       cy="6.5434799"
       cx="65.628304"
       class="fil0" /><path
       style="fill:#181818"
       id="path3375"
       d="m 57.8932,76.5295 c 0,2.02438 1.64407,3.66845 3.66727,3.66845 2.0291,0 3.66963,-1.64407 3.66963,-3.66845 l 0.0035,-30.7755 1.63344,0 -0.0094,30.7755 c 0,2.02438 1.64171,3.66845 3.66727,3.66845 2.02556,0 3.66727,-1.64407 3.66727,-3.66845 l 0.01653,-53.0566 1.60864,0 0,19.5517 c 0,3.93419 5.13181,3.93419 5.12,0 l 0,-19.9698 c 0,-4.34403 -2.5535,-8.60301 -7.63689,-8.60301 l -14.6667,-0.0071 c -4.63339,0 -7.53531,3.77829 -7.53531,8.49081 l 0,20.0902 c 0,3.90466 5.15897,3.90466 5.15897,0 l 0,-19.5528 1.64289,0 -0.0071,53.0566 z"
       class="fil0" /><path
       style="fill:#181818"
       id="path3377"
       d="m 44.0249,19.9391 c 4.2023,0 5.90778,3.46294 6.54439,5.37275 l 5.16252,16.9722 c 1.02991,3.65191 -3.61412,5.1637 -4.72079,1.60509 l -4.64638,-15.5844 -1.35234,0 8.05381,27.7212 -7.41957,0 0,21.6127 c 0,3.68498 -5.54283,3.66727 -5.54283,0 l 0,-21.7544 -2.26059,0 0.0047,21.7237 c 0,3.71569 -5.56645,3.71569 -5.56645,0 l -0.0012,-21.5819 -7.44319,0 7.99003,-27.7212 -1.24959,0 -4.64638,15.6399 c -1.10668,3.40861 -5.79203,2.00902 -4.71843,-1.64407 l 5.15897,-16.9899 c 0.552747,-1.9358 2.24642,-5.37275 6.48769,-5.37275 l 10.1656,0.0012 z"
       class="fil0" /><ellipse
       d="M 44.99404,12.6476 A 6.0225401,6.0225 0 0 1 38.9715,18.6701 6.0225401,6.0225 0 0 1 32.94896,12.6476 6.0225401,6.0225 0 0 1 38.9715,6.6251001 6.0225401,6.0225 0 0 1 44.99404,12.6476 Z"
       style="fill:#181818"
       id="ellipse3379"
       ry="6.0225"
       rx="6.0225401"
       cy="12.6476"
       cx="38.9715"
       class="fil0" /><path
       style="fill:#181818"
       id="path3381"
       d="m 92.5615,42.2757 c 2.63618,0 3.70624,2.17201 4.10545,3.36963 l 3.23853,10.6475 c 0.64605,2.28894 -2.2665,3.23735 -2.96098,1.00628 l -2.91491,-9.77583 -0.848018,0 5.0515,17.3891 -4.65347,0 0,13.5553 c 0,2.31256 -3.47711,2.30075 -3.47711,0 l 0,-13.6451 -1.4173,0 0.0024,13.6273 c 0,2.33028 -3.49246,2.33028 -3.49246,0 l 0,-13.5376 -4.66882,0 5.01134,-17.3891 -0.783059,0 -2.91491,9.81008 c -0.694477,2.13776 -3.63301,1.26022 -2.9598,-1.03109 l 3.23617,-10.6569 c 0.346058,-1.21415 1.40903,-3.36963 4.07001,-3.36963 l 6.37549,0 z"
       class="fil0" /><ellipse
       d="m 93.169877,37.702301 a 3.7776799,3.7776699 0 0 1 -3.77768,3.77767 3.7776799,3.7776699 0 0 1 -3.77768,-3.77767 3.7776799,3.7776699 0 0 1 3.77768,-3.77767 3.7776799,3.7776699 0 0 1 3.77768,3.77767 z"
       style="fill:#181818"
       id="ellipse3383"
       ry="3.7776699"
       rx="3.7776799"
       cy="37.702301"
       cx="89.392197"
       class="fil0" /><ellipse
       d="m 14.65653,28.973301 a 4.5506301,4.5506201 0 0 1 -4.55063,4.55062 4.5506301,4.5506201 0 0 1 -4.5506303,-4.55062 4.5506301,4.5506201 0 0 1 4.5506303,-4.55062 4.5506301,4.5506201 0 0 1 4.55063,4.55062 z"
       style="fill:#181818"
       id="ellipse3385"
       ry="4.5506201"
       rx="4.5506301"
       cy="28.973301"
       cx="10.1059"
       class="fil0" /><path
       style="fill:#181818"
       id="path3387"
       d="m 4.72552,77.6468 c 0,1.40785 1.14447,2.55114 2.55114,2.55114 1.4114,0 2.55232,-1.14329 2.55232,-2.55114 l 0.00236,-21.4036 1.1362,0 -0.0071,21.4036 c 0,1.40785 1.14211,2.55114 2.55114,2.55114 1.40903,0 2.55114,-1.14329 2.55114,-2.55114 l 0.01063,-36.8994 1.11849,0 0,13.5978 c 0,2.73539 3.56924,2.73539 3.56097,0 l 0,-13.8884 c 0,-3.02239 -1.77517,-5.98337 -5.31133,-5.98337 L 5.2416803,34.46873 c -3.222,0 -5.24047003,2.62673 -5.24047003,5.90542 l 0,13.971 c 0,2.71649 3.58695003,2.71649 3.58695003,0 l 0,-13.5978 1.14329,0 -0.00591,36.8994 z"
       class="fil0" /></g></svg>