<?xml version="1.0" encoding="UTF-8"?>
<!DOCTYPE svg PUBLIC "-//W3C//DTD SVG 1.1//EN" "http://www.w3.org/Graphics/SVG/1.1/DTD/svg11.dtd">
<svg version="1.1" id="Layer_1" xmlns="http://www.w3.org/2000/svg" xmlns:xlink="http://www.w3.org/1999/xlink" x="0px" y="0px"
	 width="100px" height="100px" viewBox="0 0 100 100" enable-background="new 0 0 100 100" xml:space="preserve" preserveAspectRatio="xMinYMid meet">
	<path
     style="fill:#000000;fill-opacity:1"
     id="path3338"
     d="M 71.888,14 28.112,14 C 20.349846,14 14,20.349846 14,28.106461 l 0,43.787081 C 14,79.650156 20.349846,86 28.112,86 l 43.776,0 C 79.650154,86 86,79.650156 86,71.893542 L 86,28.106461 C 86,20.349846 79.650154,14 71.888,14 Z m -2.66123,41.826462 c 3.943384,3.655384 4.763077,5.436 4.895999,5.657534 1.633847,2.711085 -1.805538,2.924313 -1.805538,2.924313 l -6.582462,0.08861 c 0,0 -1.417846,0.282464 -3.278769,-0.996926 -2.461846,-1.683689 -4.782461,-6.075689 -6.590769,-5.505228 -1.833231,0.581539 -1.777847,4.536002 -1.777847,4.536002 0,0 0.01108,0.56215 -0.404307,1.016306 -0.451385,0.476312 -1.340308,0.299073 -1.340308,0.299073 l -2.940923,0 c 0,0 -6.499384,0.667392 -12.223384,-5.289227 -6.241847,-6.49938 -11.752616,-19.257227 -11.752616,-19.257227 0,0 -0.315692,-0.775385 0.02769,-1.185231 0.390462,-0.459692 1.445538,-0.454153 1.445538,-0.454153 l 7.039385,-0.02769 c 0,0 0.661847,0.119077 1.138154,0.468 0.393231,0.288 0.612,0.83077 0.612,0.83077 0,0 1.138154,2.88 2.644615,5.483076 2.940923,5.081539 4.311693,6.194769 5.308616,5.649231 1.456616,-0.794769 1.019077,-7.183384 1.019077,-7.183384 0,0 0.02769,-2.320615 -0.733846,-3.353539 -0.587077,-0.800307 -1.69477,-1.035692 -2.184923,-1.099384 -0.39877,-0.05262 0.252,-0.972 1.096615,-1.384616 1.268308,-0.620308 3.505846,-0.653538 6.150462,-0.628616 2.057538,0.01939 2.652923,0.149539 3.456,0.343385 2.428615,0.584308 1.603385,2.849539 1.603385,8.277231 0,1.739077 -0.312924,4.184308 0.941538,4.995693 0.54,0.348923 1.860923,0.05262 5.156307,-5.549539 1.564616,-2.655692 2.733232,-5.776615 2.733232,-5.776615 0,0 0.260307,-0.556616 0.653538,-0.79477 0.407077,-0.243692 0.958154,-0.168922 0.958154,-0.168922 l 7.413231,-0.04708 c 0,0 2.226461,-0.265846 2.586461,0.739385 0.382154,1.055076 -0.833539,3.516923 -3.860308,7.551692 -4.979076,6.626769 -5.527384,6.012 -1.403999,9.841846 z" />
 </svg>